STARTFONT 2.1
COMMENT
COMMENT Converted from OpenType font "..\ttf\ITC Avant Garde Gothic Book Condensed.otf" by "otf2bdf.exe 3.0".
COMMENT
FONT -FreeType-AvantGarde CondBook-Medium-R-Normal--39-280-100-100-P-156-ISO10646-1
SIZE 28 100 100
FONTBOUNDINGBOX 44 46 -6 -8
STARTPROPERTIES 19
FOUNDRY "FreeType"
FAMILY_NAME "AvantGarde CondBook"
WEIGHT_NAME "Medium"
SLANT "R"
SETWIDTH_NAME "Normal"
ADD_STYLE_NAME ""
PIXEL_SIZE 39
POINT_SIZE 280
RESOLUTION_X 100
RESOLUTION_Y 100
SPACING "P"
AVERAGE_WIDTH 156
CHARSET_REGISTRY "ISO10646"
CHARSET_ENCODING "1"
FONT_ASCENT 28
FONT_DESCENT 7
COPYRIGHT "Copyright (c) 1989, 1990 Adobe Systems Incorporated.  All Rights Reserved.Avant Garde Gothic is a registered trademark of International Typeface Corporation."
_OTF_FONTFILE "..\ttf\ITC Avant Garde Gothic Book Condensed.otf"
_OTF_PSNAME "AvantGarde-CondBook"
ENDPROPERTIES
CHARS 235
STARTCHAR 0020
ENCODING 32
SWIDTH 282 0
DWIDTH 11 0
BBX 0 0 0 0
BITMAP
ENDCHAR
STARTCHAR 0021
ENCODING 33
SWIDTH 231 0
DWIDTH 9 0
BBX 3 28 3 0
BITMAP
E0
E0
E0
E0
E0
E0
E0
E0
E0
E0
E0
E0
E0
E0
E0
E0
E0
E0
E0
E0
E0
00
00
00
E0
E0
E0
E0
ENDCHAR
STARTCHAR 0022
ENCODING 34
SWIDTH 334 0
DWIDTH 13 0
BBX 7 10 3 17
BITMAP
C6
C6
C6
C6
C6
C6
C6
C6
C6
C6
ENDCHAR
STARTCHAR 0023
ENCODING 35
SWIDTH 565 0
DWIDTH 22 0
BBX 19 28 1 0
BITMAP
018380
038300
038300
038300
038700
030700
030700
030700
070600
7FFFE0
7FFFE0
7FFFE0
060E00
060E00
060E00
060C00
0E0C00
FFFFC0
FFFFC0
FFFFC0
0C1C00
0C1C00
0C1C00
1C1800
1C1800
1C1800
1C3800
183800
ENDCHAR
STARTCHAR 0024
ENCODING 36
SWIDTH 565 0
DWIDTH 22 0
BBX 17 36 2 -4
BITMAP
018000
018000
018000
0FE000
1FF800
3FFC00
781E00
700E00
E00700
E00700
E00700
E00000
F00000
780000
7E0000
3F8000
0FE000
03F800
007E00
001F00
000F00
000780
000380
000380
E00380
E00380
E00380
700700
781F00
3FFE00
1FFC00
0FE000
018000
018000
018000
018000
ENDCHAR
STARTCHAR 0025
ENCODING 37
SWIDTH 900 0
DWIDTH 35 0
BBX 30 28 2 0
BITMAP
0F800C00
3FE01C00
78F01800
70703800
E0383000
E0387000
E0386000
E038E000
E038C000
E038C000
7071C000
78F18000
3FE38000
0F830000
000707C0
00061FF0
000E3C78
000C3838
001C701C
0018701C
0018701C
0038701C
0030701C
0070701C
00603838
00E03C78
00C01FF0
01C007C0
ENDCHAR
STARTCHAR 0026
ENCODING 38
SWIDTH 617 0
DWIDTH 24 0
BBX 21 28 1 0
BITMAP
03E000
07F800
0FF800
0E3C00
1C1C00
1C1C00
1C1C00
1C1C00
1C3800
0E7800
0EF000
07E018
07C038
0F8038
1FC070
39E070
70F0E0
7071C0
E039C0
E03F80
E01F80
E00F00
E00F00
F00F80
781FC0
3FF9E0
1FF0E0
0FE070
ENDCHAR
STARTCHAR 0027
ENCODING 39
SWIDTH 231 0
DWIDTH 9 0
BBX 2 10 3 17
BITMAP
C0
C0
C0
C0
C0
C0
C0
C0
C0
C0
ENDCHAR
STARTCHAR 0028
ENCODING 40
SWIDTH 385 0
DWIDTH 15 0
BBX 11 35 3 -7
BITMAP
0060
00E0
03C0
0380
0700
0E00
1C00
1C00
3800
3800
7000
7000
7000
E000
E000
E000
E000
E000
E000
E000
E000
6000
7000
7000
7800
3800
3C00
1C00
0E00
0F00
0780
03C0
01E0
0060
0020
ENDCHAR
STARTCHAR 0029
ENCODING 41
SWIDTH 385 0
DWIDTH 15 0
BBX 11 35 1 -7
BITMAP
C000
E000
7800
3C00
1E00
0E00
0700
0780
0380
03C0
01C0
01C0
01E0
00E0
00E0
00E0
00E0
00E0
00E0
00E0
00E0
00E0
01C0
01C0
01C0
0380
0380
0700
0E00
1E00
3C00
7800
F000
C000
8000
ENDCHAR
STARTCHAR 002A
ENCODING 42
SWIDTH 437 0
DWIDTH 17 0
BBX 13 14 2 14
BITMAP
0700
0700
4200
6230
F278
3AE0
0700
0F80
7AF0
F278
4210
0300
0700
0700
ENDCHAR
STARTCHAR 002B
ENCODING 43
SWIDTH 591 0
DWIDTH 23 0
BBX 19 19 2 1
BITMAP
00E000
00E000
00E000
00E000
00E000
00E000
00E000
00E000
FFFFE0
FFFFE0
FFFFE0
00E000
00E000
00E000
00E000
00E000
00E000
00E000
00E000
ENDCHAR
STARTCHAR 002C
ENCODING 44
SWIDTH 282 0
DWIDTH 11 0
BBX 7 8 0 -4
BITMAP
0E
1C
18
38
30
70
60
E0
ENDCHAR
STARTCHAR 002D
ENCODING 45
SWIDTH 334 0
DWIDTH 13 0
BBX 9 2 2 10
BITMAP
FF80
FF80
ENDCHAR
STARTCHAR 002E
ENCODING 46
SWIDTH 282 0
DWIDTH 11 0
BBX 3 4 4 0
BITMAP
E0
E0
E0
E0
ENDCHAR
STARTCHAR 002F
ENCODING 47
SWIDTH 282 0
DWIDTH 11 0
BBX 12 28 -1 0
BITMAP
0070
0070
00E0
00E0
00E0
01C0
01C0
01C0
0380
0380
0380
0700
0700
0700
0E00
0E00
0E00
1C00
1C00
1C00
3800
3800
3800
7000
7000
7000
E000
E000
ENDCHAR
STARTCHAR 0030
ENCODING 48
SWIDTH 565 0
DWIDTH 22 0
BBX 19 28 1 0
BITMAP
01F800
07FE00
0FFF00
1E0F00
3C0780
3803C0
7001C0
7001C0
7001C0
E000E0
E000E0
E000E0
E000E0
E000E0
E000E0
E000E0
E000E0
E000E0
E000E0
7001C0
7001C0
7001C0
380380
3C0780
1E0F00
1FFF00
07FC00
03F000
ENDCHAR
STARTCHAR 0031
ENCODING 49
SWIDTH 565 0
DWIDTH 22 0
BBX 7 28 6 0
BITMAP
FE
FE
FE
0E
0E
0E
0E
0E
0E
0E
0E
0E
0E
0E
0E
0E
0E
0E
0E
0E
0E
0E
0E
0E
0E
0E
0E
0E
ENDCHAR
STARTCHAR 0032
ENCODING 50
SWIDTH 565 0
DWIDTH 22 0
BBX 16 28 2 0
BITMAP
07E0
1FF8
3FFC
781E
700F
7007
E007
E007
E007
0007
0007
000E
001E
001C
0038
0078
00F0
01E0
03C0
0780
0F00
0E00
1C00
3800
7000
FFFF
FFFF
FFFF
ENDCHAR
STARTCHAR 0033
ENCODING 51
SWIDTH 565 0
DWIDTH 22 0
BBX 18 28 1 0
BITMAP
03F800
0FFC00
1FFF00
3C0F00
780780
700380
700380
000380
000380
000700
000F00
01FC00
01F000
01FE00
001F00
000780
000380
0001C0
0001C0
E001C0
E001C0
E001C0
F001C0
700380
780780
3FFF00
1FFE00
07F000
ENDCHAR
STARTCHAR 0034
ENCODING 52
SWIDTH 565 0
DWIDTH 22 0
BBX 18 28 1 0
BITMAP
003C00
007C00
007C00
00FC00
00FC00
01DC00
01DC00
039C00
031C00
071C00
0E1C00
0E1C00
1C1C00
1C1C00
381C00
381C00
701C00
701C00
E01C00
FFFFC0
FFFFC0
FFFFC0
001C00
001C00
001C00
001C00
001C00
001C00
ENDCHAR
STARTCHAR 0035
ENCODING 53
SWIDTH 565 0
DWIDTH 22 0
BBX 17 28 2 0
BITMAP
3FFE00
3FFE00
3FFE00
300000
300000
300000
300000
300000
700000
73F000
77FC00
7FFE00
7C1F00
780700
700700
700380
000380
000380
000380
000380
E00380
E00380
E00700
700700
780E00
3FFE00
1FF800
07E000
ENDCHAR
STARTCHAR 0036
ENCODING 54
SWIDTH 565 0
DWIDTH 22 0
BBX 17 28 2 0
BITMAP
03F000
0FFC00
1FFE00
1C0F00
380700
380780
700380
700380
700000
E00000
E1E000
E7F800
EFFE00
FC1E00
F80F00
F00700
F00380
F00380
F00380
E00380
F00380
700380
700700
780700
3C0F00
1FFE00
0FFC00
03F000
ENDCHAR
STARTCHAR 0037
ENCODING 55
SWIDTH 565 0
DWIDTH 22 0
BBX 16 28 2 0
BITMAP
FFFF
FFFF
FFFF
0007
000E
000E
000E
001C
001C
001C
0038
0038
0038
0070
0070
00F0
00E0
00E0
01E0
01C0
01C0
03C0
0380
0380
0780
0700
0700
0F00
ENDCHAR
STARTCHAR 0038
ENCODING 56
SWIDTH 565 0
DWIDTH 22 0
BBX 18 28 1 0
BITMAP
03F000
0FFC00
1FFE00
3C0F00
780780
700380
700380
700380
700380
380700
3C0F00
1FFE00
07F800
1FFE00
3C0F00
780780
7003C0
E001C0
E001C0
E001C0
E001C0
E001C0
F003C0
700380
7C0780
3FFF00
0FFC00
03F000
ENDCHAR
STARTCHAR 0039
ENCODING 57
SWIDTH 565 0
DWIDTH 22 0
BBX 17 28 2 0
BITMAP
07E000
1FF800
3FFC00
3C1E00
700F00
700700
E00700
E00780
E00380
E00380
E00780
E00780
700780
780F80
7C1F80
3FFB80
1FF380
07E380
000380
000300
E00700
E00700
F00F00
700E00
781C00
3FFC00
1FF800
07E000
ENDCHAR
STARTCHAR 003A
ENCODING 58
SWIDTH 282 0
DWIDTH 11 0
BBX 3 17 4 1
BITMAP
E0
E0
E0
00
00
00
00
00
00
00
00
00
00
E0
E0
E0
E0
ENDCHAR
STARTCHAR 003B
ENCODING 59
SWIDTH 282 0
DWIDTH 11 0
BBX 7 22 0 -4
BITMAP
0E
0E
0E
0E
00
00
00
00
00
00
00
00
00
00
0E
0C
1C
18
38
70
70
E0
ENDCHAR
STARTCHAR 003C
ENCODING 60
SWIDTH 591 0
DWIDTH 23 0
BBX 19 19 2 0
BITMAP
000060
0003E0
000FE0
003F00
00FC00
03F000
0FC000
3F0000
F80000
F00000
FC0000
3F0000
0FE000
01F800
007E00
001F80
0007E0
0001E0
000060
ENDCHAR
STARTCHAR 003D
ENCODING 61
SWIDTH 591 0
DWIDTH 23 0
BBX 19 10 2 5
BITMAP
FFFFE0
FFFFE0
FFFFE0
000000
000000
000000
000000
FFFFE0
FFFFE0
FFFFE0
ENDCHAR
STARTCHAR 003E
ENCODING 62
SWIDTH 591 0
DWIDTH 23 0
BBX 19 20 2 0
BITMAP
800000
E00000
F80000
7E0000
1FC000
07F000
00FC00
003F00
000FC0
0003E0
0003E0
000FC0
003F00
00FC00
03F000
1FC000
7F0000
F80000
E00000
800000
ENDCHAR
STARTCHAR 003F
ENCODING 63
SWIDTH 437 0
DWIDTH 17 0
BBX 15 28 1 0
BITMAP
07E0
1FF8
3FFC
781C
701E
E00E
E00E
E00E
E00E
000E
001C
003C
0078
00F0
01E0
03C0
0380
0380
0380
0380
0380
0000
0000
0000
0380
0380
0380
0380
ENDCHAR
STARTCHAR 0040
ENCODING 64
SWIDTH 797 0
DWIDTH 31 0
BBX 27 28 2 0
BITMAP
003FC000
00FFF000
03F0FC00
07801E00
0E000F00
1C000380
381F03C0
387F99C0
70FFF9E0
71F1F8E0
71C0F0E0
E3C070E0
E38070E0
E78060E0
E700E0E0
E700E1C0
E700E1C0
E701C380
7783C380
73C7CF00
7BFFFE00
39FDFC00
1C70E380
1E000780
0F801E00
03F0FC00
01FFF000
003FC000
ENDCHAR
STARTCHAR 0041
ENCODING 65
SWIDTH 488 0
DWIDTH 19 0
BBX 19 28 0 0
BITMAP
01F000
01F000
01F000
01B000
03B800
03B800
033800
071800
071C00
071C00
061C00
0E0E00
0E0E00
0E0E00
0C0E00
1C0700
1C0700
1FFF00
1FFF00
3FFF80
380380
300380
7001C0
7001C0
7001C0
6001C0
E000E0
E000E0
ENDCHAR
STARTCHAR 0042
ENCODING 66
SWIDTH 565 0
DWIDTH 22 0
BBX 17 28 3 0
BITMAP
FFF000
FFF800
FFFE00
E01E00
E00F00
E00700
E00700
E00700
E00700
E00700
E00E00
E01E00
FFFC00
FFF000
FFFE00
E01F00
E00700
E00780
E00380
E00380
E00380
E00380
E00380
E00700
E00F00
FFFE00
FFFC00
FFF000
ENDCHAR
STARTCHAR 0043
ENCODING 67
SWIDTH 565 0
DWIDTH 22 0
BBX 19 28 1 0
BITMAP
01F800
07FE00
0FFF00
1C0780
3803C0
3801C0
7001C0
7000E0
7000E0
E000E0
E00000
E00000
E00000
E00000
E00000
E00000
E00000
E00000
E000E0
7000E0
7000E0
7000E0
3801C0
3C01C0
1E0380
0FFF00
07FE00
01F800
ENDCHAR
STARTCHAR 0044
ENCODING 68
SWIDTH 617 0
DWIDTH 24 0
BBX 19 28 3 0
BITMAP
FFF000
FFFC00
FFFE00
E00F00
E00780
E00380
E001C0
E001C0
E001C0
E000E0
E000E0
E000E0
E000E0
E000E0
E000E0
E000E0
E000E0
E000E0
E000E0
E001C0
E001C0
E001C0
E00380
E00780
E00F00
FFFE00
FFFC00
FFF000
ENDCHAR
STARTCHAR 0045
ENCODING 69
SWIDTH 488 0
DWIDTH 19 0
BBX 14 28 3 0
BITMAP
FFFC
FFFC
FFFC
E000
E000
E000
E000
E000
E000
E000
E000
E000
FFFC
FFFC
FFFC
E000
E000
E000
E000
E000
E000
E000
E000
E000
E000
FFFC
FFFC
FFFC
ENDCHAR
STARTCHAR 0046
ENCODING 70
SWIDTH 437 0
DWIDTH 17 0
BBX 13 28 3 0
BITMAP
FFF8
FFF8
FFF8
E000
E000
E000
E000
E000
E000
E000
E000
E000
FFF8
FFF8
FFF8
E000
E000
E000
E000
E000
E000
E000
E000
E000
E000
E000
E000
E000
ENDCHAR
STARTCHAR 0047
ENCODING 71
SWIDTH 617 0
DWIDTH 24 0
BBX 21 28 1 0
BITMAP
01FC00
07FF00
0FFF80
1E03C0
3C01E0
3800E0
700070
700070
700070
E00000
E00000
E00000
E00000
E00000
E0FFF8
E0FFF8
E0FFF8
E00038
E00038
700038
700038
700078
380070
3C00F0
1E01E0
0FFFC0
07FF80
01FC00
ENDCHAR
STARTCHAR 0048
ENCODING 72
SWIDTH 617 0
DWIDTH 24 0
BBX 18 28 3 0
BITMAP
E001C0
E001C0
E001C0
E001C0
E001C0
E001C0
E001C0
E001C0
E001C0
E001C0
E001C0
E001C0
FFFFC0
FFFFC0
FFFFC0
E001C0
E001C0
E001C0
E001C0
E001C0
E001C0
E001C0
E001C0
E001C0
E001C0
E001C0
E001C0
E001C0
ENDCHAR
STARTCHAR 0049
ENCODING 73
SWIDTH 231 0
DWIDTH 9 0
BBX 3 28 3 0
BITMAP
E0
E0
E0
E0
E0
E0
E0
E0
E0
E0
E0
E0
E0
E0
E0
E0
E0
E0
E0
E0
E0
E0
E0
E0
E0
E0
E0
E0
ENDCHAR
STARTCHAR 004A
ENCODING 74
SWIDTH 437 0
DWIDTH 17 0
BBX 14 28 0 0
BITMAP
001C
001C
001C
001C
001C
001C
001C
001C
001C
001C
001C
001C
001C
001C
001C
001C
001C
001C
001C
001C
001C
E01C
E01C
F01C
7038
7FF8
3FF0
0FC0
ENDCHAR
STARTCHAR 004B
ENCODING 75
SWIDTH 565 0
DWIDTH 22 0
BBX 18 28 3 0
BITMAP
E00700
E00F00
E01E00
E01C00
E03800
E07800
E07000
E0E000
E1E000
E1C000
E38000
E7C000
E7C000
EFE000
FCE000
F8F000
F87000
F07800
E03800
E03C00
E01C00
E01E00
E00E00
E00F00
E00700
E00780
E00380
E003C0
ENDCHAR
STARTCHAR 004C
ENCODING 76
SWIDTH 437 0
DWIDTH 17 0
BBX 13 28 3 0
BITMAP
E000
E000
E000
E000
E000
E000
E000
E000
E000
E000
E000
E000
E000
E000
E000
E000
E000
E000
E000
E000
E000
E000
E000
E000
E000
FFF8
FFF8
FFF8
ENDCHAR
STARTCHAR 004D
ENCODING 77
SWIDTH 720 0
DWIDTH 28 0
BBX 22 28 3 0
BITMAP
F8007C
F8007C
F8007C
F8007C
FC00FC
FC00FC
FC00DC
EE00DC
EE01DC
EE01DC
E7019C
E7039C
E7039C
E3039C
E3831C
E3871C
E1871C
E1C61C
E1C61C
E1CE1C
E0EE1C
E0EC1C
E0FC1C
E07C1C
E0781C
E0781C
E0381C
E0381C
ENDCHAR
STARTCHAR 004E
ENCODING 78
SWIDTH 617 0
DWIDTH 24 0
BBX 18 28 3 0
BITMAP
F001C0
F001C0
F801C0
F801C0
FC01C0
FC01C0
FE01C0
EE01C0
E701C0
E701C0
E381C0
E3C1C0
E1C1C0
E1E1C0
E0E1C0
E0F1C0
E071C0
E079C0
E039C0
E01DC0
E01FC0
E00FC0
E00FC0
E007C0
E007C0
E003C0
E003C0
E001C0
ENDCHAR
STARTCHAR 004F
ENCODING 79
SWIDTH 617 0
DWIDTH 24 0
BBX 21 28 1 0
BITMAP
01FC00
07FF00
0FFF80
1E03C0
3C01E0
3800E0
700070
700070
700070
E00038
E00038
E00038
E00038
E00038
E00038
E00038
E00038
E00038
E00038
700070
700070
700070
3800E0
3C00E0
1E03C0
0FFF80
07FF00
01FC00
ENDCHAR
STARTCHAR 0050
ENCODING 80
SWIDTH 565 0
DWIDTH 22 0
BBX 17 28 3 0
BITMAP
FFF000
FFFC00
FFFE00
E00F00
E00700
E00380
E00380
E00380
E00380
E00380
E00380
E00380
E00700
E00F00
FFFE00
FFFC00
FFF000
E00000
E00000
E00000
E00000
E00000
E00000
E00000
E00000
E00000
E00000
E00000
ENDCHAR
STARTCHAR 0051
ENCODING 81
SWIDTH 617 0
DWIDTH 24 0
BBX 22 28 1 0
BITMAP
01FC00
07FF00
0FFF80
1E03C0
3C01E0
3800E0
700070
700070
700070
E00038
E00038
E00038
E00038
E00038
E00038
E00038
E00038
E00038
EF8038
7FF070
7FF870
707C70
381EF0
3C0FE0
1E07C0
0FFFFC
07FFFC
01FC7C
ENDCHAR
STARTCHAR 0052
ENCODING 82
SWIDTH 565 0
DWIDTH 22 0
BBX 17 28 3 0
BITMAP
FFF000
FFFC00
FFFE00
E00F00
E00700
E00780
E00380
E00380
E00380
E00380
E00380
E00380
E00700
E00F00
E7FE00
E3FC00
E1F800
E1C000
E0E000
E07000
E07800
E03800
E01C00
E01E00
E00E00
E00700
E00780
E00380
ENDCHAR
STARTCHAR 0053
ENCODING 83
SWIDTH 488 0
DWIDTH 19 0
BBX 18 28 1 0
BITMAP
03F000
0FFC00
1FFE00
3C0F00
380700
700380
700380
700380
700000
780000
3C0000
3F0000
1FE000
07FC00
00FE00
001F00
000780
0003C0
0001C0
E001C0
E001C0
E001C0
E001C0
700380
780780
3FFF00
1FFE00
07F800
ENDCHAR
STARTCHAR 0054
ENCODING 84
SWIDTH 437 0
DWIDTH 17 0
BBX 17 28 0 0
BITMAP
FFFF80
FFFF80
FFFF80
01C000
01C000
01C000
01C000
01C000
01C000
01C000
01C000
01C000
01C000
01C000
01C000
01C000
01C000
01C000
01C000
01C000
01C000
01C000
01C000
01C000
01C000
01C000
01C000
01C000
ENDCHAR
STARTCHAR 0055
ENCODING 85
SWIDTH 565 0
DWIDTH 22 0
BBX 17 28 2 0
BITMAP
E00380
E00380
E00380
E00380
E00380
E00380
E00380
E00380
E00380
E00380
E00380
E00380
E00380
E00380
E00380
E00380
E00380
E00380
E00380
E00380
E00380
E00380
F00380
700700
780F00
3FFE00
1FFC00
07F000
ENDCHAR
STARTCHAR 0056
ENCODING 86
SWIDTH 488 0
DWIDTH 19 0
BBX 19 28 0 0
BITMAP
E000E0
E000E0
7000E0
7000C0
7001C0
3001C0
3801C0
380180
380380
180380
1C0380
1C0300
0C0700
0E0700
0E0600
0E0E00
060E00
070E00
070C00
031C00
039C00
039C00
039800
01B800
01F800
01F800
01F000
00F000
ENDCHAR
STARTCHAR 0057
ENCODING 87
SWIDTH 822 0
DWIDTH 32 0
BBX 31 28 0 0
BITMAP
E007800E
E007800E
E007C01C
6007C01C
7007C01C
700EC01C
700EC038
380EE038
380EE038
380CE030
180C6070
1C1C6070
1C1C7070
1C1C7060
0C1C70E0
0E1870E0
0E1830C0
0E3830C0
073839C0
073839C0
07303980
03301980
03F01B80
03F01F80
03F01F00
01F01F00
01E00F00
01E00E00
ENDCHAR
STARTCHAR 0058
ENCODING 88
SWIDTH 488 0
DWIDTH 19 0
BBX 19 28 0 0
BITMAP
7003C0
380380
380780
1C0700
1C0F00
0E0E00
0E1E00
071C00
073C00
03B800
03F800
01F000
01F000
00E000
01F000
03F000
03B800
07B800
071C00
0F1E00
0E0E00
1E0F00
1C0700
3C0780
380380
7801C0
7001C0
F000E0
ENDCHAR
STARTCHAR 0059
ENCODING 89
SWIDTH 488 0
DWIDTH 19 0
BBX 19 28 0 0
BITMAP
F001E0
7001C0
7803C0
380380
380380
1C0700
1C0700
0E0E00
0E0E00
071C00
071C00
03B800
03B800
03B800
01F000
01F000
00E000
00E000
00E000
00E000
00E000
00E000
00E000
00E000
00E000
00E000
00E000
00E000
ENDCHAR
STARTCHAR 005A
ENCODING 90
SWIDTH 437 0
DWIDTH 17 0
BBX 15 28 1 0
BITMAP
FFFE
FFFE
FFFE
001C
003C
0038
0078
0070
00F0
00E0
01E0
01C0
03C0
0380
0780
0700
0700
0E00
0E00
1C00
1C00
3800
3800
7000
7000
FFFE
FFFE
FFFE
ENDCHAR
STARTCHAR 005B
ENCODING 91
SWIDTH 385 0
DWIDTH 15 0
BBX 10 35 4 -8
BITMAP
FFC0
FFC0
E000
E000
E000
E000
E000
E000
E000
E000
E000
E000
E000
E000
E000
E000
E000
E000
E000
E000
E000
E000
E000
E000
E000
E000
E000
E000
E000
E000
E000
E000
E000
FFC0
FFC0
ENDCHAR
STARTCHAR 005C
ENCODING 92
SWIDTH 282 0
DWIDTH 11 0
BBX 12 28 -1 0
BITMAP
E000
E000
7000
7000
7000
3800
3800
1800
1C00
1C00
0C00
0E00
0E00
0600
0700
0700
0300
0380
0380
0180
01C0
01C0
00C0
00E0
00E0
0060
0070
0070
ENDCHAR
STARTCHAR 005D
ENCODING 93
SWIDTH 385 0
DWIDTH 15 0
BBX 10 35 1 -8
BITMAP
FFC0
FFC0
01C0
01C0
01C0
01C0
01C0
01C0
01C0
01C0
01C0
01C0
01C0
01C0
01C0
01C0
01C0
01C0
01C0
01C0
01C0
01C0
01C0
01C0
01C0
01C0
01C0
01C0
01C0
01C0
01C0
01C0
01C0
FFC0
FFC0
ENDCHAR
STARTCHAR 005E
ENCODING 94
SWIDTH 591 0
DWIDTH 23 0
BBX 19 17 2 11
BITMAP
00E000
01E000
01F000
03F000
03B800
073800
071C00
0E1C00
0E0E00
1C0E00
1C0700
1C0700
380380
380380
7001C0
7001C0
E000E0
ENDCHAR
STARTCHAR 005F
ENCODING 95
SWIDTH 488 0
DWIDTH 19 0
BBX 19 2 0 -5
BITMAP
FFFFE0
FFFFE0
ENDCHAR
STARTCHAR 0060
ENCODING 96
SWIDTH 231 0
DWIDTH 9 0
BBX 7 5 -1 23
BITMAP
E0
70
38
1C
06
ENDCHAR
STARTCHAR 0061
ENCODING 97
SWIDTH 488 0
DWIDTH 19 0
BBX 16 21 1 0
BITMAP
07C7
1FF7
3FFF
381F
700F
700F
E007
E007
E007
E007
E007
E007
E007
E007
F007
700F
700F
381F
3FFF
1FF7
07E7
ENDCHAR
STARTCHAR 0062
ENCODING 98
SWIDTH 488 0
DWIDTH 19 0
BBX 16 28 2 0
BITMAP
E000
E000
E000
E000
E000
E000
E000
E3E0
EFF8
FFFC
F81C
F00E
F00E
E007
E007
E007
E007
E007
E007
E007
E007
E007
F00E
F00E
F81C
FFFC
EFF8
E7E0
ENDCHAR
STARTCHAR 0063
ENCODING 99
SWIDTH 437 0
DWIDTH 17 0
BBX 15 21 1 0
BITMAP
07E0
1FF8
3FFC
383C
701E
700E
E00E
E00E
E000
E000
E000
E000
E000
E000
F00E
700E
701E
781C
3FFC
1FF8
07E0
ENDCHAR
STARTCHAR 0064
ENCODING 100
SWIDTH 488 0
DWIDTH 19 0
BBX 16 28 1 0
BITMAP
0007
0007
0007
0007
0007
0007
0007
07C7
1FF7
3FFF
381F
700F
700F
E007
E007
E007
E007
E007
E007
E007
E007
F007
700F
700F
381F
3FFF
1FF7
07E7
ENDCHAR
STARTCHAR 0065
ENCODING 101
SWIDTH 437 0
DWIDTH 17 0
BBX 15 21 1 0
BITMAP
07C0
0FF0
3FF8
383C
701C
700C
600E
E00E
E00E
FFFE
FFFE
FFFE
E000
E000
E00E
700E
701C
381C
3FF8
1FF0
07C0
ENDCHAR
STARTCHAR 0066
ENCODING 102
SWIDTH 231 0
DWIDTH 9 0
BBX 10 28 0 0
BITMAP
07C0
0FC0
1E00
1C00
1C00
1C00
1C00
FF80
FF80
1C00
1C00
1C00
1C00
1C00
1C00
1C00
1C00
1C00
1C00
1C00
1C00
1C00
1C00
1C00
1C00
1C00
1C00
1C00
ENDCHAR
STARTCHAR 0067
ENCODING 103
SWIDTH 488 0
DWIDTH 19 0
BBX 16 29 1 -8
BITMAP
07C7
1FF7
3FFF
381F
700F
700F
E007
E007
E007
E007
E007
E007
E007
E007
F007
700F
700F
381F
3FFF
1FF7
07C7
0007
E007
E007
F00F
780E
7FFE
3FFC
0FE0
ENDCHAR
STARTCHAR 0068
ENCODING 104
SWIDTH 488 0
DWIDTH 19 0
BBX 15 28 2 0
BITMAP
E000
E000
E000
E000
E000
E000
E000
E3E0
EFF8
FFFC
F81E
F01E
E00E
E00E
E00E
E00E
E00E
E00E
E00E
E00E
E00E
E00E
E00E
E00E
E00E
E00E
E00E
E00E
ENDCHAR
STARTCHAR 0069
ENCODING 105
SWIDTH 231 0
DWIDTH 9 0
BBX 3 27 3 1
BITMAP
E0
E0
E0
00
00
00
E0
E0
E0
E0
E0
E0
E0
E0
E0
E0
E0
E0
E0
E0
E0
E0
E0
E0
E0
E0
E0
ENDCHAR
STARTCHAR 006A
ENCODING 106
SWIDTH 231 0
DWIDTH 9 0
BBX 7 36 -2 -8
BITMAP
0E
0E
0E
0E
00
00
00
0E
0E
0E
0E
0E
0E
0E
0E
0E
0E
0E
0E
0E
0E
0E
0E
0E
0E
0E
0E
0E
0E
0E
0E
0E
0E
FE
FC
F0
ENDCHAR
STARTCHAR 006B
ENCODING 107
SWIDTH 437 0
DWIDTH 17 0
BBX 14 28 2 0
BITMAP
E000
E000
E000
E000
E000
E000
E000
E038
E078
E070
E0E0
E1C0
E1C0
E380
E700
E780
EF80
FDC0
F9C0
F9C0
F0E0
E0E0
E070
E070
E038
E038
E01C
E01C
ENDCHAR
STARTCHAR 006C
ENCODING 108
SWIDTH 231 0
DWIDTH 9 0
BBX 3 28 3 0
BITMAP
E0
E0
E0
E0
E0
E0
E0
E0
E0
E0
E0
E0
E0
E0
E0
E0
E0
E0
E0
E0
E0
E0
E0
E0
E0
E0
E0
E0
ENDCHAR
STARTCHAR 006D
ENCODING 109
SWIDTH 771 0
DWIDTH 30 0
BBX 26 21 2 0
BITMAP
E7E0FC00
EFF1FF00
FFFBFF80
F83F03C0
F01E01C0
E01C01C0
E01C01C0
E01C01C0
E01C01C0
E01C01C0
E01C01C0
E01C01C0
E01C01C0
E01C01C0
E01C01C0
E01C01C0
E01C01C0
E01C01C0
E01C01C0
E01C01C0
E01C01C0
ENDCHAR
STARTCHAR 006E
ENCODING 110
SWIDTH 488 0
DWIDTH 19 0
BBX 15 21 2 0
BITMAP
E3E0
EFF8
FFFC
F81E
F01E
E00E
E00E
E00E
E00E
E00E
E00E
E00E
E00E
E00E
E00E
E00E
E00E
E00E
E00E
E00E
E00E
ENDCHAR
STARTCHAR 006F
ENCODING 111
SWIDTH 488 0
DWIDTH 19 0
BBX 17 21 1 0
BITMAP
03F000
0FFC00
1FFE00
3C1E00
780F00
700700
700780
E00380
E00380
E00380
E00380
E00380
E00380
E00380
F00780
700700
780F00
3C0E00
3FFE00
0FF800
07F000
ENDCHAR
STARTCHAR 0070
ENCODING 112
SWIDTH 488 0
DWIDTH 19 0
BBX 16 29 2 -8
BITMAP
E7E0
EFF8
FFFC
F81C
F00E
F00E
E007
E007
E007
E007
E007
E007
E007
E007
E007
F00E
F00E
F81C
FFFC
EFF8
E3E0
E000
E000
E000
E000
E000
E000
E000
E000
ENDCHAR
STARTCHAR 0071
ENCODING 113
SWIDTH 488 0
DWIDTH 19 0
BBX 16 29 1 -8
BITMAP
07E7
1FF7
3FFF
381F
700F
700F
E007
E007
E007
E007
E007
E007
E007
E007
E007
700F
700F
381F
3FFF
1FF7
07C7
0007
0007
0007
0007
0007
0007
0007
0007
ENDCHAR
STARTCHAR 0072
ENCODING 114
SWIDTH 282 0
DWIDTH 11 0
BBX 8 21 2 0
BITMAP
E7
EF
FF
F8
F0
E0
E0
E0
E0
E0
E0
E0
E0
E0
E0
E0
E0
E0
E0
E0
E0
ENDCHAR
STARTCHAR 0073
ENCODING 115
SWIDTH 437 0
DWIDTH 17 0
BBX 14 21 1 0
BITMAP
07C0
1FF0
3FF8
783C
701C
701C
7000
7800
3E00
3FC0
0FF0
01F8
007C
001C
001C
E01C
E01C
7038
7FF8
3FF0
0FC0
ENDCHAR
STARTCHAR 0074
ENCODING 116
SWIDTH 231 0
DWIDTH 9 0
BBX 9 27 0 1
BITMAP
1C00
1C00
1C00
1C00
1C00
1C00
FF80
FF80
1C00
1C00
1C00
1C00
1C00
1C00
1C00
1C00
1C00
1C00
1C00
1C00
1C00
1C00
1C00
1C00
1C00
1C00
1C00
ENDCHAR
STARTCHAR 0075
ENCODING 117
SWIDTH 488 0
DWIDTH 19 0
BBX 15 21 2 0
BITMAP
E00E
E00E
E00E
E00E
E00E
E00E
E00E
E00E
E00E
E00E
E00E
E00E
E00E
E00E
E00E
E00E
F01E
703E
7FFE
3FEE
0F8E
ENDCHAR
STARTCHAR 0076
ENCODING 118
SWIDTH 437 0
DWIDTH 17 0
BBX 16 21 0 0
BITMAP
E007
E007
700E
700E
700E
381C
381C
381C
3818
1C38
1C38
1C38
0E70
0E70
0E70
0E60
07E0
07E0
07C0
03C0
03C0
ENDCHAR
STARTCHAR 0077
ENCODING 119
SWIDTH 668 0
DWIDTH 26 0
BBX 26 21 0 0
BITMAP
E01E01C0
E01E01C0
701E0380
701F0380
701F0380
303B0300
38330700
38330700
38338700
1C338600
1C718E00
1C618E00
0C618C00
0E61CC00
0E61DC00
0EE0DC00
06C0D800
07C0D800
07C0F800
03C0F800
03C07000
ENDCHAR
STARTCHAR 0078
ENCODING 120
SWIDTH 437 0
DWIDTH 17 0
BBX 16 21 0 0
BITMAP
700E
381E
381C
1C38
1C38
0E70
0F70
07E0
03C0
03C0
03C0
03E0
07E0
0E70
0E70
1C38
1C38
381C
781E
700E
E00F
ENDCHAR
STARTCHAR 0079
ENCODING 121
SWIDTH 437 0
DWIDTH 17 0
BBX 16 29 0 -8
BITMAP
E007
E007
700E
700E
700E
300C
381C
381C
1818
1838
1C38
1C30
0C30
0E70
0E60
0660
06E0
07E0
03C0
03C0
03C0
0380
0380
0380
0700
0700
0700
0E00
0E00
ENDCHAR
STARTCHAR 007A
ENCODING 122
SWIDTH 437 0
DWIDTH 17 0
BBX 15 21 1 0
BITMAP
7FFE
7FFE
001E
001C
003C
0078
0070
00F0
01E0
01C0
0380
0780
0F00
0E00
1E00
3C00
3800
7800
F000
FFFE
FFFE
ENDCHAR
STARTCHAR 007B
ENCODING 123
SWIDTH 385 0
DWIDTH 15 0
BBX 12 36 2 -8
BITMAP
0FF0
1FF0
3C00
3800
3800
3800
3800
3800
3800
3800
3800
3800
3800
3800
3800
3800
7800
F000
F000
7800
3800
3800
3800
3800
3800
3800
3800
3800
3800
3800
3800
3800
3800
3C00
1FF0
0FF0
ENDCHAR
STARTCHAR 007C
ENCODING 124
SWIDTH 231 0
DWIDTH 9 0
BBX 3 28 3 0
BITMAP
E0
E0
E0
E0
E0
E0
E0
E0
E0
E0
E0
E0
E0
E0
E0
E0
E0
E0
E0
E0
E0
E0
E0
E0
E0
E0
E0
E0
ENDCHAR
STARTCHAR 007D
ENCODING 125
SWIDTH 385 0
DWIDTH 15 0
BBX 12 36 1 -8
BITMAP
FF00
FF80
03C0
01C0
01C0
01C0
01C0
01C0
01C0
01C0
01C0
01C0
01C0
01C0
01C0
01C0
01E0
00F0
00F0
01E0
01C0
01C0
01C0
01C0
01C0
01C0
01C0
01C0
01C0
01C0
01C0
01C0
01C0
03C0
FF80
FF00
ENDCHAR
STARTCHAR 007E
ENCODING 126
SWIDTH 591 0
DWIDTH 23 0
BBX 17 6 3 7
BITMAP
1E0080
7F8180
7FF380
E1FF80
C07F00
401E00
ENDCHAR
STARTCHAR 00A0
ENCODING 160
SWIDTH 282 0
DWIDTH 11 0
BBX 0 0 0 0
BITMAP
ENDCHAR
STARTCHAR 00A1
ENCODING 161
SWIDTH 231 0
DWIDTH 9 0
BBX 3 28 3 -7
BITMAP
E0
E0
E0
E0
00
00
00
E0
E0
E0
E0
E0
E0
E0
E0
E0
E0
E0
E0
E0
E0
E0
E0
E0
E0
E0
E0
E0
ENDCHAR
STARTCHAR 00A2
ENCODING 162
SWIDTH 565 0
DWIDTH 22 0
BBX 14 28 3 0
BITMAP
0180
0180
0180
0380
0FE0
1FF0
3878
703C
701C
601C
E01C
E000
E000
E000
E000
E000
E000
E01C
F01C
701C
783C
3C78
3FF8
1FF0
07C0
0180
0180
0180
ENDCHAR
STARTCHAR 00A3
ENCODING 163
SWIDTH 565 0
DWIDTH 22 0
BBX 19 28 1 0
BITMAP
03F000
0FFE00
1FFF00
1C0F80
380380
3803C0
7001C0
7001C0
700000
700000
700000
780000
380000
FFFE00
FFFE00
0E0000
070000
070000
0380E0
0380E0
0380E0
0380E0
0380E0
0381E0
0383C0
7FFF80
7FFF00
7FFC00
ENDCHAR
STARTCHAR 00A4
ENCODING 164
SWIDTH 565 0
DWIDTH 22 0
BBX 19 20 1 4
BITMAP
41F040
E7FCE0
7FFFC0
3E0F80
380380
7801C0
7001C0
E000E0
E000E0
E000E0
E000E0
E000E0
E000E0
7001C0
7801C0
3C0380
3E0F80
7FFFC0
E7FCE0
41F040
ENDCHAR
STARTCHAR 00A5
ENCODING 165
SWIDTH 565 0
DWIDTH 22 0
BBX 18 28 2 0
BITMAP
E003C0
E00380
F00780
700700
780700
380E00
380E00
1C1C00
1C1C00
0E3800
0E3800
FE3F80
FF7F80
077000
03E000
03E000
01C000
FFFF80
FFFF80
01C000
01C000
01C000
01C000
01C000
01C000
01C000
01C000
01C000
ENDCHAR
STARTCHAR 00A6
ENCODING 166
SWIDTH 231 0
DWIDTH 9 0
BBX 3 28 3 0
BITMAP
E0
E0
E0
E0
E0
E0
E0
E0
E0
E0
E0
00
00
00
00
00
00
E0
E0
E0
E0
E0
E0
E0
E0
E0
E0
E0
ENDCHAR
STARTCHAR 00A7
ENCODING 167
SWIDTH 437 0
DWIDTH 17 0
BBX 15 31 1 -4
BITMAP
07C0
1FF0
3C78
3830
3800
3800
1C00
0E00
1F00
7F80
F3C0
E0F0
E070
E038
703C
781E
380E
1C0E
1E0E
0F9E
03FC
01F0
00E0
0070
0078
0038
0038
3038
3870
1FF0
07C0
ENDCHAR
STARTCHAR 00A8
ENCODING 168
SWIDTH 231 0
DWIDTH 9 0
BBX 8 4 0 24
BITMAP
E3
E3
E3
E3
ENDCHAR
STARTCHAR 00A9
ENCODING 169
SWIDTH 797 0
DWIDTH 31 0
BBX 29 28 1 0
BITMAP
001FC000
00FFF800
03F8FE00
07801F00
0F000780
1C0003C0
3C1FC1E0
387FF0E0
70F07870
71E03870
61C01C78
E3800038
E3800038
E3800038
E3800038
E3800038
E3800038
E1C01C38
71C01870
70E03870
38F870E0
3C3FE1E0
1C0F83C0
0F000780
07800F00
03F8FE00
00FFF800
001FC000
ENDCHAR
STARTCHAR 00AA
ENCODING 170
SWIDTH 308 0
DWIDTH 12 0
BBX 11 13 0 15
BITMAP
1F60
3FE0
71E0
70E0
E0E0
E0E0
E0E0
E0E0
E0E0
70E0
71E0
3FE0
1F60
ENDCHAR
STARTCHAR 00AB
ENCODING 171
SWIDTH 437 0
DWIDTH 17 0
BBX 14 14 2 4
BITMAP
061C
0E38
1C70
3870
38E0
71C0
E180
E180
71C0
38E0
3870
1C70
0E38
061C
ENDCHAR
STARTCHAR 00AC
ENCODING 172
SWIDTH 591 0
DWIDTH 23 0
BBX 20 10 1 4
BITMAP
FFFFF0
FFFFF0
FFFFF0
000070
000070
000070
000070
000070
000070
000070
ENDCHAR
STARTCHAR 00AD
ENCODING 173
SWIDTH 334 0
DWIDTH 13 0
BBX 9 2 2 10
BITMAP
FF80
FF80
ENDCHAR
STARTCHAR 00AE
ENCODING 174
SWIDTH 797 0
DWIDTH 31 0
BBX 29 28 1 0
BITMAP
001FE000
00FFF800
03F8FE00
07800F00
0F000780
1E0003C0
3C7FE1E0
387FF0E0
70707870
70703870
E0703838
E0703838
E0707838
E07FF038
E07FE038
E0718038
E071C038
F070E038
7070E070
70707070
387070E0
3C7039E0
1E0001C0
0F000780
07C00F00
03F8FE00
00FFF800
001FC000
ENDCHAR
STARTCHAR 00AF
ENCODING 175
SWIDTH 231 0
DWIDTH 9 0
BBX 11 2 -1 25
BITMAP
FFE0
FFE0
ENDCHAR
STARTCHAR 00B0
ENCODING 176
SWIDTH 411 0
DWIDTH 16 0
BBX 11 11 2 17
BITMAP
1F00
3F80
71C0
E0E0
C060
C060
C060
E0E0
71C0
3F80
1F00
ENDCHAR
STARTCHAR 00B1
ENCODING 177
SWIDTH 591 0
DWIDTH 23 0
BBX 19 19 2 1
BITMAP
00E000
00E000
00E000
00E000
00E000
00E000
FFFFE0
FFFFE0
FFFFE0
00E000
00E000
00E000
00E000
00E000
00E000
000000
FFFFE0
FFFFE0
FFFFE0
ENDCHAR
STARTCHAR 00B2
ENCODING 178
SWIDTH 334 0
DWIDTH 13 0
BBX 11 17 1 11
BITMAP
1F00
7FC0
71E0
E0E0
E0E0
E0E0
00E0
01C0
03C0
0780
0F00
1E00
3C00
7800
F000
FFE0
FFE0
ENDCHAR
STARTCHAR 00B3
ENCODING 179
SWIDTH 334 0
DWIDTH 13 0
BBX 13 17 0 11
BITMAP
0F80
3FE0
38F0
7070
7070
0070
00F0
07E0
07E0
00F0
0078
0038
E038
E038
7870
7FF0
1FC0
ENDCHAR
STARTCHAR 00B4
ENCODING 180
SWIDTH 231 0
DWIDTH 9 0
BBX 6 5 2 23
BITMAP
0C
18
30
60
C0
ENDCHAR
STARTCHAR 00B5
ENCODING 181
SWIDTH 488 0
DWIDTH 19 0
BBX 15 29 2 -8
BITMAP
E00E
E00E
E00E
E00E
E00E
E00E
E00E
E00E
E00E
E00E
E00E
E00E
E00E
E00E
E00E
E00E
F01E
F03E
FFFE
FFEE
FF8E
E000
E000
E000
E000
E000
E000
E000
E000
ENDCHAR
STARTCHAR 00B6
ENCODING 182
SWIDTH 591 0
DWIDTH 23 0
BBX 17 31 2 -4
BITMAP
07FF80
1FFF80
3FE380
7FE380
7FE380
FFE380
FFE380
FFE380
FFE380
FFE380
7FE380
7FE380
3FE380
0FE380
01E380
00E380
00E380
00E380
00E380
00E380
00E380
00E380
00E380
00E380
00E380
00E380
00E380
00E380
00E380
00E380
00E380
ENDCHAR
STARTCHAR 00B7
ENCODING 183
SWIDTH 282 0
DWIDTH 11 0
BBX 4 4 3 8
BITMAP
60
F0
F0
60
ENDCHAR
STARTCHAR 00B8
ENCODING 184
SWIDTH 231 0
DWIDTH 9 0
BBX 8 8 1 -7
BITMAP
18
10
20
7E
07
07
FE
FC
ENDCHAR
STARTCHAR 00B9
ENCODING 185
SWIDTH 334 0
DWIDTH 13 0
BBX 5 17 3 11
BITMAP
F8
F8
38
38
38
38
38
38
38
38
38
38
38
38
38
38
38
ENDCHAR
STARTCHAR 00BA
ENCODING 186
SWIDTH 308 0
DWIDTH 12 0
BBX 12 13 0 15
BITMAP
1F80
3FC0
79E0
70F0
E070
E070
E070
E070
E070
70E0
79E0
3FC0
1F80
ENDCHAR
STARTCHAR 00BB
ENCODING 187
SWIDTH 437 0
DWIDTH 17 0
BBX 14 14 2 4
BITMAP
E180
71C0
38E0
3870
1C70
0E38
061C
061C
0E38
1C70
3870
38E0
71C0
E180
ENDCHAR
STARTCHAR 00BC
ENCODING 188
SWIDTH 822 0
DWIDTH 32 0
BBX 26 28 4 0
BITMAP
F8007000
F8007000
3800E000
3800E000
3801C000
3801C000
38038000
38038000
38070000
38070000
380E0000
380E0F00
381C0F00
381C1F00
38383F00
38383F00
38707700
00706700
00E0E700
00E1C700
01C1C700
01C38700
0383FFC0
0383FFC0
07000700
07000700
0E000700
0E000700
ENDCHAR
STARTCHAR 00BD
ENCODING 189
SWIDTH 822 0
DWIDTH 32 0
BBX 26 28 4 0
BITMAP
F800E000
F800E000
3801C000
3801C000
38038000
38038000
38070000
38070000
380E0000
380E0000
381C0000
381C3E00
38387F80
3838E3C0
3871C1C0
3871C1C0
38E1C1C0
00E001C0
01C00380
01C00780
03800F00
03801E00
07003C00
0F007800
0E00F000
1E01E000
1C01FFC0
3C01FFC0
ENDCHAR
STARTCHAR 00BE
ENCODING 190
SWIDTH 822 0
DWIDTH 32 0
BBX 29 28 1 0
BITMAP
0F800700
3FE00700
38F00E00
70700E00
70701C00
00701C00
00F03800
07E03800
07E07000
00F07000
0078E000
0038E1E0
E039E1E0
E039C3E0
7873C3E0
7FF387E0
1FC78EE0
00070EE0
000F1CE0
000E18E0
001E38E0
001C30E0
003C7FF8
00387FF8
007800E0
007000E0
00F000E0
00E000E0
ENDCHAR
STARTCHAR 00BF
ENCODING 191
SWIDTH 437 0
DWIDTH 17 0
BBX 15 28 1 -7
BITMAP
01C0
01C0
01C0
01C0
0000
0000
0000
01C0
01C0
01C0
01C0
01C0
03C0
0780
1F00
3E00
7800
7000
E000
E00E
E00E
E00E
E00E
701E
783C
3FF8
1FF0
07E0
ENDCHAR
STARTCHAR 00C0
ENCODING 192
SWIDTH 488 0
DWIDTH 19 0
BBX 19 34 0 0
BITMAP
070000
038000
01C000
00E000
003000
000000
01F000
01F000
01F000
01B000
03B800
03B800
031800
071C00
071C00
071C00
060C00
0E0E00
0E0E00
0E0E00
0C0600
1C0700
1C0700
1FFF00
1FFF00
3FFF80
380380
300380
7001C0
7001C0
7001C0
6000C0
E000E0
E000E0
ENDCHAR
STARTCHAR 00C1
ENCODING 193
SWIDTH 488 0
DWIDTH 19 0
BBX 19 34 0 0
BITMAP
001C00
003000
006000
00C000
018000
000000
01E000
01F000
01F000
01B000
03B800
03B800
033800
071800
071C00
071C00
061C00
0E0C00
0E0E00
0E0E00
0C0E00
1C0700
1C0700
1FFF00
1FFF00
3FFF80
380380
300380
700380
7001C0
7001C0
6001C0
E000E0
E000E0
ENDCHAR
STARTCHAR 00C2
ENCODING 194
SWIDTH 488 0
DWIDTH 19 0
BBX 19 34 0 0
BITMAP
00E000
01B000
033800
071C00
0E0E00
000000
01F000
01F000
01F000
01B000
03B800
03B800
033800
071800
071C00
071C00
061C00
0E0E00
0E0E00
0E0E00
0C0E00
1C0700
1C0700
1FFF00
1FFF00
3FFF80
380380
300380
7001C0
7001C0
7001C0
6001C0
E000E0
E000E0
ENDCHAR
STARTCHAR 00C3
ENCODING 195
SWIDTH 488 0
DWIDTH 19 0
BBX 19 34 0 0
BITMAP
030200
0FE600
0CFE00
083C00
000000
000000
01F000
01F000
01F000
01B000
03B800
03B800
033800
071800
071C00
071C00
061C00
0E0E00
0E0E00
0E0E00
0C0E00
1C0700
1C0700
1FFF00
1FFF00
3FFF80
380380
300380
7001C0
7001C0
7001C0
6001C0
E000E0
E000E0
ENDCHAR
STARTCHAR 00C4
ENCODING 196
SWIDTH 488 0
DWIDTH 19 0
BBX 19 34 0 0
BITMAP
071800
071800
071800
071800
000000
000000
00E000
01F000
01F000
01B000
03B000
03B800
033800
033800
071C00
071C00
061C00
061C00
0E0E00
0E0E00
0C0E00
1C0E00
1C0F00
1FFF00
1FFF00
3FFF80
300780
300380
300380
7003C0
6001C0
6001C0
E001E0
E000E0
ENDCHAR
STARTCHAR 00C5
ENCODING 197
SWIDTH 488 0
DWIDTH 19 0
BBX 19 38 0 0
BITMAP
00E000
03F800
031800
060C00
060C00
060C00
031800
03F800
00E000
000000
01F000
01F000
01F000
01B000
03B800
03B800
033800
071800
071C00
071C00
060C00
0E0E00
0E0E00
0E0E00
0C0600
1C0700
1C0700
1FFF00
1FFF00
3FFF80
300380
300180
7001C0
7001C0
6001C0
6000C0
E000E0
E000E0
ENDCHAR
STARTCHAR 00C6
ENCODING 198
SWIDTH 822 0
DWIDTH 32 0
BBX 30 28 -1 0
BITMAP
0001FFFC
0003FFFC
0007FFFC
0007E000
000EE000
000EE000
001CE000
001CE000
0038E000
0038E000
0070E000
0070E000
00E0FFFC
00E0FFFC
01C0FFFC
01C0E000
0380E000
03FFE000
07FFE000
07FFE000
0E00E000
1E00E000
1C00E000
3C00E000
3800E000
7000FFFC
7000FFFC
E000FFFC
ENDCHAR
STARTCHAR 00C7
ENCODING 199
SWIDTH 565 0
DWIDTH 22 0
BBX 19 36 1 -8
BITMAP
01F800
07FE00
0FFF00
1C0780
3803C0
3801C0
7001C0
7000E0
7000E0
E000E0
E00000
E00000
E00000
E00000
E00000
E00000
E00000
E00000
E000E0
7000E0
7000E0
7000E0
3801C0
3C01C0
1E0780
0FFF00
07FE00
01F800
006000
00C000
008000
01F800
001C00
001C00
03F800
03F000
ENDCHAR
STARTCHAR 00C8
ENCODING 200
SWIDTH 488 0
DWIDTH 19 0
BBX 14 34 3 0
BITMAP
1800
0C00
0600
0300
0180
0000
FFFC
FFFC
FFFC
E000
E000
E000
E000
E000
E000
E000
E000
E000
FFFC
FFFC
FFFC
E000
E000
E000
E000
E000
E000
E000
E000
E000
E000
FFFC
FFFC
FFFC
ENDCHAR
STARTCHAR 00C9
ENCODING 201
SWIDTH 488 0
DWIDTH 19 0
BBX 13 34 3 0
BITMAP
00E0
01C0
0380
0700
0600
0000
FFF8
FFF8
FFF8
E000
E000
E000
E000
E000
E000
E000
E000
E000
FFF8
FFF8
FFF8
E000
E000
E000
E000
E000
E000
E000
E000
E000
E000
FFF8
FFF8
FFF8
ENDCHAR
STARTCHAR 00CA
ENCODING 202
SWIDTH 488 0
DWIDTH 19 0
BBX 13 34 3 0
BITMAP
0700
0D80
1CC0
38E0
7070
0000
FFF8
FFF8
FFF8
E000
E000
E000
E000
E000
E000
E000
E000
E000
FFF8
FFF8
FFF8
E000
E000
E000
E000
E000
E000
E000
E000
E000
E000
FFF8
FFF8
FFF8
ENDCHAR
STARTCHAR 00CB
ENCODING 203
SWIDTH 488 0
DWIDTH 19 0
BBX 14 34 3 0
BITMAP
1C60
1C60
1C60
1C60
0000
0000
FFFC
FFFC
FFFC
E000
E000
E000
E000
E000
E000
E000
E000
E000
FFFC
FFFC
FFFC
E000
E000
E000
E000
E000
E000
E000
E000
E000
E000
FFFC
FFFC
FFFC
ENDCHAR
STARTCHAR 00CC
ENCODING 204
SWIDTH 231 0
DWIDTH 9 0
BBX 7 34 -1 0
BITMAP
E0
70
38
1C
0E
00
1C
1C
1C
1C
1C
1C
1C
1C
1C
1C
1C
1C
1C
1C
1C
1C
1C
1C
1C
1C
1C
1C
1C
1C
1C
1C
1C
1C
ENDCHAR
STARTCHAR 00CD
ENCODING 205
SWIDTH 231 0
DWIDTH 9 0
BBX 7 34 2 0
BITMAP
0E
18
38
70
E0
00
70
70
70
70
70
70
70
70
70
70
70
70
70
70
70
70
70
70
70
70
70
70
70
70
70
70
70
70
ENDCHAR
STARTCHAR 00CE
ENCODING 206
SWIDTH 231 0
DWIDTH 9 0
BBX 11 34 -1 0
BITMAP
0E00
1B00
3380
71C0
E0E0
0000
0E00
0E00
0E00
0E00
0E00
0E00
0E00
0E00
0E00
0E00
0E00
0E00
0E00
0E00
0E00
0E00
0E00
0E00
0E00
0E00
0E00
0E00
0E00
0E00
0E00
0E00
0E00
0E00
ENDCHAR
STARTCHAR 00CF
ENCODING 207
SWIDTH 231 0
DWIDTH 9 0
BBX 8 34 0 0
BITMAP
E3
E3
E3
E3
00
00
1C
1C
1C
1C
1C
1C
1C
1C
1C
1C
1C
1C
1C
1C
1C
1C
1C
1C
1C
1C
1C
1C
1C
1C
1C
1C
1C
1C
ENDCHAR
STARTCHAR 00D0
ENCODING 208
SWIDTH 617 0
DWIDTH 24 0
BBX 22 28 0 0
BITMAP
1FFE00
1FFF80
1FFFC0
1C01E0
1C00F0
1C0070
1C0038
1C0038
1C0038
1C001C
1C001C
1C001C
FFF81C
FFF81C
FFF81C
1C001C
1C001C
1C001C
1C001C
1C0038
1C0038
1C0038
1C0070
1C00F0
1C01E0
1FFFC0
1FFF80
1FFE00
ENDCHAR
STARTCHAR 00D1
ENCODING 209
SWIDTH 617 0
DWIDTH 24 0
BBX 18 34 3 0
BITMAP
070200
0FC600
18FC00
183800
000000
000000
F001C0
F001C0
F801C0
F801C0
FC01C0
FC01C0
FE01C0
EE01C0
E701C0
E701C0
E381C0
E3C1C0
E1C1C0
E1E1C0
E0E1C0
E0F1C0
E071C0
E079C0
E039C0
E03DC0
E01FC0
E00FC0
E00FC0
E007C0
E007C0
E003C0
E003C0
E001C0
ENDCHAR
STARTCHAR 00D2
ENCODING 210
SWIDTH 617 0
DWIDTH 24 0
BBX 21 34 1 0
BITMAP
038000
01C000
00E000
007000
003800
000000
01FC00
07FF00
0FFF80
1E03C0
3C01E0
3800E0
700070
700070
700070
E00038
E00038
E00038
E00038
E00038
E00038
E00038
E00038
E00038
E00038
700070
700070
700070
3800E0
3C00E0
1E03C0
0FFF80
07FF00
01FC00
ENDCHAR
STARTCHAR 00D3
ENCODING 211
SWIDTH 617 0
DWIDTH 24 0
BBX 21 34 1 0
BITMAP
000C00
001800
003000
006000
00C000
000000
01FC00
07FF00
0FFF80
1E03C0
3C01E0
3800E0
700070
700070
700070
E00038
E00038
E00038
E00038
E00038
E00038
E00038
E00038
E00038
E00038
700070
700070
700070
3800E0
3C01E0
1E03C0
0FFF80
07FF00
01FC00
ENDCHAR
STARTCHAR 00D4
ENCODING 212
SWIDTH 617 0
DWIDTH 24 0
BBX 21 34 1 0
BITMAP
007000
00D800
01DC00
038E00
070700
000000
01FC00
07FF00
0FFF80
1E03C0
3C01E0
3800E0
700070
700070
700070
E00038
E00038
E00038
E00038
E00038
E00038
E00038
E00038
E00038
E00038
700070
700070
700070
3800E0
3C00E0
1E03C0
0FFF80
07FF00
01FC00
ENDCHAR
STARTCHAR 00D5
ENCODING 213
SWIDTH 617 0
DWIDTH 24 0
BBX 21 34 1 0
BITMAP
01C180
07F180
067F00
0C1E00
000000
000000
01FC00
07FF00
0FFF80
1E03C0
3C01E0
3800E0
700070
700070
700070
E00038
E00038
E00038
E00038
E00038
E00038
E00038
E00038
E00038
E00038
700070
700070
700070
3800E0
3C00E0
1E03C0
0FFF80
07FF00
01FC00
ENDCHAR
STARTCHAR 00D6
ENCODING 214
SWIDTH 617 0
DWIDTH 24 0
BBX 21 34 1 0
BITMAP
038C00
038C00
038C00
038C00
000000
000000
01FC00
07FF00
0FFF80
1E03C0
3C01E0
3800E0
700070
700070
700070
E00038
E00038
E00038
E00038
E00038
E00038
E00038
E00038
E00038
E00038
700070
700070
700070
3800E0
3C00E0
1E03C0
0FFF80
07FF00
01FC00
ENDCHAR
STARTCHAR 00D7
ENCODING 215
SWIDTH 591 0
DWIDTH 23 0
BBX 19 19 2 1
BITMAP
6000C0
F001E0
7803C0
3C0780
1E0F00
0F1E00
07BC00
03F800
01F000
01F000
03F800
07BC00
071E00
0E0E00
1C0700
380380
7001C0
E000E0
400040
ENDCHAR
STARTCHAR 00D8
ENCODING 216
SWIDTH 617 0
DWIDTH 24 0
BBX 21 30 1 -1
BITMAP
000038
01FC30
07FF70
0FFFE0
1E03C0
3C01E0
3803F0
7003F0
700770
700E70
E00E38
E01C38
E03838
E03838
E07038
E0E038
E0E038
E1C038
E38038
E38038
770070
7E0070
7E0070
3C00E0
3C00E0
3E03C0
7FFF80
67FF00
E1FC00
C00000
ENDCHAR
STARTCHAR 00D9
ENCODING 217
SWIDTH 565 0
DWIDTH 22 0
BBX 17 34 2 0
BITMAP
0E0000
070000
038000
01C000
00E000
000000
E00380
E00380
E00380
E00380
E00380
E00380
E00380
E00380
E00380
E00380
E00380
E00380
E00380
E00380
E00380
E00380
E00380
E00380
E00380
E00380
E00380
E00380
F00380
700700
780F00
3FFE00
1FFC00
07F000
ENDCHAR
STARTCHAR 00DA
ENCODING 218
SWIDTH 565 0
DWIDTH 22 0
BBX 17 34 2 0
BITMAP
003800
006000
00C000
018000
030000
000000
E00380
E00380
E00380
E00380
E00380
E00380
E00380
E00380
E00380
E00380
E00380
E00380
E00380
E00380
E00380
E00380
E00380
E00380
E00380
E00380
E00380
E00380
E00380
700700
780F00
3FFE00
1FFC00
07F000
ENDCHAR
STARTCHAR 00DB
ENCODING 219
SWIDTH 565 0
DWIDTH 22 0
BBX 17 34 2 0
BITMAP
01C000
036000
067000
0E3800
1C1C00
000000
E00380
E00380
E00380
E00380
E00380
E00380
E00380
E00380
E00380
E00380
E00380
E00380
E00380
E00380
E00380
E00380
E00380
E00380
E00380
E00380
E00380
E00380
F00380
700700
780F00
3FFE00
1FFC00
07F000
ENDCHAR
STARTCHAR 00DC
ENCODING 220
SWIDTH 565 0
DWIDTH 22 0
BBX 17 34 2 0
BITMAP
0E3000
0E3000
0E3000
0E3000
000000
000000
E00380
E00380
E00380
E00380
E00380
E00380
E00380
E00380
E00380
E00380
E00380
E00380
E00380
E00380
E00380
E00380
E00380
E00380
E00380
E00380
E00380
E00380
F00380
700700
780F00
3FFE00
1FFC00
07F000
ENDCHAR
STARTCHAR 00DD
ENCODING 221
SWIDTH 488 0
DWIDTH 19 0
BBX 19 34 0 0
BITMAP
001C00
003000
006000
00C000
018000
000000
F001E0
7001C0
7803C0
380380
380380
1C0700
1C0700
0E0E00
0E0E00
071C00
071C00
07B800
03B800
03B800
01F000
01F000
00E000
00E000
00E000
00E000
00E000
00E000
00E000
00E000
00E000
00E000
00E000
00E000
ENDCHAR
STARTCHAR 00DE
ENCODING 222
SWIDTH 565 0
DWIDTH 22 0
BBX 17 28 3 0
BITMAP
E00000
E00000
E00000
E00000
E00000
FFE000
FFFC00
FFFE00
E01F00
E00700
E00780
E00380
E00380
E00380
E00380
E00380
E00780
E00700
E00F00
FFFE00
FFFC00
FFF000
E00000
E00000
E00000
E00000
E00000
E00000
ENDCHAR
STARTCHAR 00DF
ENCODING 223
SWIDTH 565 0
DWIDTH 22 0
BBX 18 28 2 0
BITMAP
03F000
1FFC00
3FFE00
780E00
700F00
F00700
E00700
E00700
E00700
E00700
E00F00
E00E00
E03E00
E1FC00
E1FE00
E1FF00
E00F80
E003C0
E001C0
E001C0
F801C0
F801C0
FC01C0
FC0380
EF0780
EFFF00
E7FE00
E1F800
ENDCHAR
STARTCHAR 00E0
ENCODING 224
SWIDTH 488 0
DWIDTH 19 0
BBX 16 28 1 0
BITMAP
0C00
0600
0300
0180
00C0
0000
0000
07C7
1FF7
3FFF
381F
700F
700F
E007
E007
E007
E007
E007
E007
E007
E007
E007
700F
700F
381F
3FFF
1FF7
07C7
ENDCHAR
STARTCHAR 00E1
ENCODING 225
SWIDTH 488 0
DWIDTH 19 0
BBX 16 28 1 0
BITMAP
0030
0060
00C0
0180
0300
0000
0000
07C7
1FF7
3FFF
381F
700F
700F
E007
E007
E007
E007
E007
E007
E007
E007
F007
700F
700F
381F
3FFF
1FF7
07E7
ENDCHAR
STARTCHAR 00E2
ENCODING 226
SWIDTH 488 0
DWIDTH 19 0
BBX 16 28 1 0
BITMAP
03C0
07C0
0E60
1C30
3818
0000
0000
07C7
1FF7
3FFF
381F
700F
700F
E007
E007
E007
E007
E007
E007
E007
E007
F007
700F
700F
381F
3FFF
1FF7
07C7
ENDCHAR
STARTCHAR 00E3
ENCODING 227
SWIDTH 488 0
DWIDTH 19 0
BBX 16 28 1 0
BITMAP
0E04
1F8C
31F8
3070
0000
0000
0000
07C7
1FF7
3FFF
381F
700F
700F
E007
E007
E007
E007
E007
E007
E007
E007
F007
700F
700F
381F
3FFF
1FF7
07E7
ENDCHAR
STARTCHAR 00E4
ENCODING 228
SWIDTH 488 0
DWIDTH 19 0
BBX 16 28 1 0
BITMAP
0E30
0E30
0E30
0E30
0000
0000
0000
07E7
0FF7
1FFF
381F
700F
700F
6007
E007
E007
E007
E007
E007
E007
E007
F007
700F
700F
381F
3FFF
1FF7
07E7
ENDCHAR
STARTCHAR 00E5
ENCODING 229
SWIDTH 488 0
DWIDTH 19 0
BBX 16 32 1 0
BITMAP
01C0
07F0
0630
0C18
0C18
0C18
0630
07F0
01C0
0000
0000
07E7
0FF7
3FFF
381F
700F
700F
6007
E007
E007
E007
E007
E007
E007
E007
F007
700F
700F
381F
3FFF
1FF7
07E7
ENDCHAR
STARTCHAR 00E6
ENCODING 230
SWIDTH 771 0
DWIDTH 30 0
BBX 28 21 1 0
BITMAP
07E71F00
1FF77F80
3FFF7FC0
381FC1E0
700F80E0
700F8060
E0070070
E0070070
E0070070
E007FFF0
E007FFF0
E007FFF0
E0070000
E0070000
E0070070
700F8070
700F80E0
381FC0E0
3FFFFFC0
1FF77F80
07C73E00
ENDCHAR
STARTCHAR 00E7
ENCODING 231
SWIDTH 437 0
DWIDTH 17 0
BBX 15 29 1 -8
BITMAP
07E0
1FF8
3FFC
383C
701E
700E
E00E
E00E
E000
E000
E000
E000
E000
E000
F00E
700E
701E
781C
3FFC
1FF8
07E0
0180
0300
0200
07E0
0070
0070
0FE0
0FC0
ENDCHAR
STARTCHAR 00E8
ENCODING 232
SWIDTH 437 0
DWIDTH 17 0
BBX 15 28 1 0
BITMAP
1C00
0E00
0700
0380
00C0
0000
0000
07E0
0FF0
1FF8
383C
701C
700E
600E
E00E
E00E
FFFE
FFFE
FFFE
E000
E000
E00E
700E
701C
381C
3FF8
1FF0
07C0
ENDCHAR
STARTCHAR 00E9
ENCODING 233
SWIDTH 437 0
DWIDTH 17 0
BBX 15 28 1 0
BITMAP
0070
00C0
01C0
0380
0300
0000
0000
07C0
0FF0
3FF8
383C
701C
701C
600E
E00E
E00E
FFFE
FFFE
FFFE
E000
E000
E00E
700E
701C
383C
3FF8
1FF0
07C0
ENDCHAR
STARTCHAR 00EA
ENCODING 234
SWIDTH 437 0
DWIDTH 17 0
BBX 15 28 1 0
BITMAP
0380
06C0
0CE0
1C70
3838
0000
0000
07C0
0FF0
3FF8
383C
701C
700C
600E
E00E
E00E
FFFE
FFFE
FFFE
E000
E000
E00E
700E
701C
381C
3FF8
1FF0
07C0
ENDCHAR
STARTCHAR 00EB
ENCODING 235
SWIDTH 437 0
DWIDTH 17 0
BBX 15 28 1 0
BITMAP
1C60
1C60
1C60
1C60
0000
0000
0000
07C0
0FF0
3FF8
383C
701C
700C
600E
E00E
E00E
FFFE
FFFE
FFFE
E000
E000
E00E
700E
701C
381C
3FF8
1FF0
07C0
ENDCHAR
STARTCHAR 00EC
ENCODING 236
SWIDTH 231 0
DWIDTH 9 0
BBX 7 28 -1 0
BITMAP
E0
70
38
1C
0E
00
00
1C
1C
1C
1C
1C
1C
1C
1C
1C
1C
1C
1C
1C
1C
1C
1C
1C
1C
1C
1C
1C
ENDCHAR
STARTCHAR 00ED
ENCODING 237
SWIDTH 231 0
DWIDTH 9 0
BBX 7 28 2 0
BITMAP
0E
1C
38
70
E0
00
00
70
70
70
70
70
70
70
70
70
70
70
70
70
70
70
70
70
70
70
70
70
ENDCHAR
STARTCHAR 00EE
ENCODING 238
SWIDTH 231 0
DWIDTH 9 0
BBX 11 28 -1 0
BITMAP
0E00
1B00
3380
71C0
E0E0
0000
0000
0E00
0E00
0E00
0E00
0E00
0E00
0E00
0E00
0E00
0E00
0E00
0E00
0E00
0E00
0E00
0E00
0E00
0E00
0E00
0E00
0E00
ENDCHAR
STARTCHAR 00EF
ENCODING 239
SWIDTH 231 0
DWIDTH 9 0
BBX 8 28 0 0
BITMAP
E3
E3
E3
E3
00
00
00
1C
1C
1C
1C
1C
1C
1C
1C
1C
1C
1C
1C
1C
1C
1C
1C
1C
1C
1C
1C
1C
ENDCHAR
STARTCHAR 00F0
ENCODING 240
SWIDTH 488 0
DWIDTH 19 0
BBX 17 28 1 0
BITMAP
040600
1F0E00
07BC00
03F800
01E000
03F000
073800
0E1C00
081C00
000E00
008E00
0FFF00
1FFF00
3C1F00
780F80
700780
F00380
E00380
E00380
E00380
E00380
E00380
700700
700700
780E00
3FFE00
1FFC00
07F000
ENDCHAR
STARTCHAR 00F1
ENCODING 241
SWIDTH 488 0
DWIDTH 19 0
BBX 14 28 2 0
BITMAP
1C18
3F18
33F0
60E0
0000
0000
0000
E7E0
EFF0
FFF8
F83C
F01C
E01C
E01C
E01C
E01C
E01C
E01C
E01C
E01C
E01C
E01C
E01C
E01C
E01C
E01C
E01C
E01C
ENDCHAR
STARTCHAR 00F2
ENCODING 242
SWIDTH 488 0
DWIDTH 19 0
BBX 17 28 1 0
BITMAP
0E0000
070000
038000
01C000
00E000
000000
000000
03F000
0FFC00
1FFE00
3C1E00
780F00
700700
700780
E00380
E00380
E00380
E00380
E00380
E00380
E00380
F00780
700700
780F00
3C0E00
3FFE00
0FF800
07F000
ENDCHAR
STARTCHAR 00F3
ENCODING 243
SWIDTH 488 0
DWIDTH 19 0
BBX 17 28 1 0
BITMAP
003800
006000
00C000
018000
030000
000000
000000
07F000
0FF800
3FFE00
3C1E00
780F00
700700
F00780
E00380
E00380
E00380
E00380
E00380
E00380
E00380
F00780
700700
780F00
3C1E00
3FFE00
1FF800
07E000
ENDCHAR
STARTCHAR 00F4
ENCODING 244
SWIDTH 488 0
DWIDTH 19 0
BBX 17 28 1 0
BITMAP
01C000
036000
067000
0E3800
1C1C00
000000
000000
03F000
0FFC00
1FFE00
3C1E00
780F00
700700
700780
E00380
E00380
E00380
E00380
E00380
E00380
E00380
F00780
700700
780F00
3C0E00
3FFE00
0FF800
07F000
ENDCHAR
STARTCHAR 00F5
ENCODING 245
SWIDTH 488 0
DWIDTH 19 0
BBX 16 28 1 0
BITMAP
060C
1F8C
19F8
3070
0000
0000
0000
07E0
1FF8
3FFC
381C
700E
700E
F007
E007
E007
E007
E007
E007
E007
E007
F007
700E
700E
381C
3FFC
1FF8
07E0
ENDCHAR
STARTCHAR 00F6
ENCODING 246
SWIDTH 488 0
DWIDTH 19 0
BBX 17 28 1 0
BITMAP
0E3000
0E3000
0E3000
0E3000
000000
000000
000000
03F000
0FFC00
1FFE00
3C1E00
780F00
700700
700780
E00380
E00380
E00380
E00380
E00380
E00380
E00380
F00780
700700
780F00
3C0E00
3FFE00
0FF800
07F000
ENDCHAR
STARTCHAR 00F7
ENCODING 247
SWIDTH 591 0
DWIDTH 23 0
BBX 19 21 2 0
BITMAP
00E000
01F000
01F000
01F000
00E000
000000
000000
000000
000000
FFFFE0
FFFFE0
FFFFE0
000000
000000
000000
000000
00E000
01F000
01F000
01F000
00E000
ENDCHAR
STARTCHAR 00F8
ENCODING 248
SWIDTH 488 0
DWIDTH 19 0
BBX 17 25 1 -2
BITMAP
000300
000700
03F600
0FFE00
1FFC00
3C1E00
783F00
703700
707780
E06380
E0E380
E0C380
E1C380
E38380
E30380
E70380
760780
7E0700
7C0F00
3C0E00
3FFE00
3FF800
73F000
600000
E00000
ENDCHAR
STARTCHAR 00F9
ENCODING 249
SWIDTH 488 0
DWIDTH 19 0
BBX 15 28 2 0
BITMAP
1C00
0E00
0700
0380
01C0
0000
0000
E00E
E00E
E00E
E00E
E00E
E00E
E00E
E00E
E00E
E00E
E00E
E00E
E00E
E00E
E00E
E00E
F01E
703E
7FFE
3FEE
0F8E
ENDCHAR
STARTCHAR 00FA
ENCODING 250
SWIDTH 488 0
DWIDTH 19 0
BBX 15 28 2 0
BITMAP
0070
00C0
01C0
0380
0700
0000
0000
E00E
E00E
E00E
E00E
E00E
E00E
E00E
E00E
E00E
E00E
E00E
E00E
E00E
E00E
E00E
E00E
F01E
703E
7FFE
3FEE
0F8E
ENDCHAR
STARTCHAR 00FB
ENCODING 251
SWIDTH 488 0
DWIDTH 19 0
BBX 15 28 2 0
BITMAP
0380
06C0
0CE0
1C70
3838
0000
0000
E00E
E00E
E00E
E00E
E00E
E00E
E00E
E00E
E00E
E00E
E00E
E00E
E00E
E00E
E00E
E00E
F01E
703E
7FFE
3FEE
0F8E
ENDCHAR
STARTCHAR 00FC
ENCODING 252
SWIDTH 488 0
DWIDTH 19 0
BBX 15 28 2 0
BITMAP
1C60
1C60
1C60
1C60
0000
0000
0000
E00E
E00E
E00E
E00E
E00E
E00E
E00E
E00E
E00E
E00E
E00E
E00E
E00E
E00E
E00E
E00E
F01E
703E
7FEE
3FEE
0F8E
ENDCHAR
STARTCHAR 00FD
ENCODING 253
SWIDTH 437 0
DWIDTH 17 0
BBX 16 36 0 -8
BITMAP
0030
0060
00C0
0180
0300
0000
0000
E007
E007
7006
700E
700E
300C
381C
381C
1818
1C18
1C38
1C30
0C30
0E70
0E60
0660
07E0
07E0
03C0
03C0
03C0
0380
0380
0380
0700
0700
0700
0E00
0E00
ENDCHAR
STARTCHAR 00FE
ENCODING 254
SWIDTH 488 0
DWIDTH 19 0
BBX 16 36 2 -8
BITMAP
E000
E000
E000
E000
E000
E000
E000
E7E0
EFF8
FFFC
F81C
F00E
F00E
E007
E007
E007
E007
E007
E007
E007
E007
E007
F00E
F00E
F81C
FFFC
EFF8
E3E0
E000
E000
E000
E000
E000
E000
E000
E000
ENDCHAR
STARTCHAR 00FF
ENCODING 255
SWIDTH 437 0
DWIDTH 17 0
BBX 16 36 0 -8
BITMAP
0E30
0E30
0E30
0E30
0000
0000
0000
E007
E007
700E
700E
700E
301C
381C
381C
1818
1C38
1C38
1C30
0C30
0E70
0E60
0660
07E0
07E0
03C0
03C0
03C0
0380
0380
0380
0700
0700
0700
0E00
0E00
ENDCHAR
STARTCHAR 0131
ENCODING 305
SWIDTH 231 0
DWIDTH 9 0
BBX 3 21 3 0
BITMAP
E0
E0
E0
E0
E0
E0
E0
E0
E0
E0
E0
E0
E0
E0
E0
E0
E0
E0
E0
E0
E0
ENDCHAR
STARTCHAR 0141
ENCODING 321
SWIDTH 437 0
DWIDTH 17 0
BBX 16 28 0 0
BITMAP
1C00
1C00
1C00
1C00
1C00
1C00
1C00
1C00
1C00
1C00
1C38
1CF8
1FF0
1F80
FE00
FC00
DC00
1C00
1C00
1C00
1C00
1C00
1C00
1C00
1C00
1FFF
1FFF
1FFF
ENDCHAR
STARTCHAR 0142
ENCODING 322
SWIDTH 231 0
DWIDTH 9 0
BBX 9 28 0 0
BITMAP
1C00
1C00
1C00
1C00
1C00
1C00
1C00
1C00
1C00
1C80
1F80
1F80
3F00
FC00
FC00
DC00
1C00
1C00
1C00
1C00
1C00
1C00
1C00
1C00
1C00
1C00
1C00
1C00
ENDCHAR
STARTCHAR 0152
ENCODING 338
SWIDTH 951 0
DWIDTH 37 0
BBX 33 28 1 0
BITMAP
01FC3FFF80
07FF3FFF80
0FFFBFFF80
1E03F80000
3C01F80000
3800F80000
7000F80000
7000780000
7000780000
E000380000
E000380000
E000380000
E0003FFF80
E0003FFF80
E0003FFF80
E000380000
E000380000
E000380000
E000380000
7000780000
7000780000
7000780000
3800F80000
3C00F80000
1E03F80000
0FFFFFFF80
07FF3FFF80
01FC3FFF80
ENDCHAR
STARTCHAR 0153
ENCODING 339
SWIDTH 771 0
DWIDTH 30 0
BBX 28 21 1 0
BITMAP
07E03E00
0FF8FF80
3FFDFFC0
381DC1E0
700F80E0
700F80E0
F0070070
E0070070
E0070070
E007FFF0
E007FFF0
E007FFF0
E0070000
E0070000
F0070070
700F8070
780F80E0
381DC0E0
3FFDFFC0
1FF8FF80
07E03E00
ENDCHAR
STARTCHAR 0160
ENCODING 352
SWIDTH 488 0
DWIDTH 19 0
BBX 18 34 1 0
BITMAP
1C0C00
0E1800
073000
03E000
01C000
000000
03F000
0FFC00
1FFE00
3C0F00
380700
700380
700380
700380
700000
780000
3C0000
3F0000
1FE000
07FC00
00FE00
001F00
000780
0003C0
0001C0
E001C0
E001C0
E001C0
E001C0
700380
780780
3FFF00
1FFE00
07F800
ENDCHAR
STARTCHAR 0161
ENCODING 353
SWIDTH 437 0
DWIDTH 17 0
BBX 15 28 1 0
BITMAP
3818
1C30
0E60
07C0
03C0
0000
0000
07E0
1FF8
3FFC
781C
700E
700E
7000
7800
3E00
3FE0
0FF8
01FC
003E
001E
000E
E00E
F00E
701C
7FFC
3FF8
0FE0
ENDCHAR
STARTCHAR 0178
ENCODING 376
SWIDTH 488 0
DWIDTH 19 0
BBX 18 34 0 0
BITMAP
071800
071800
071800
071800
000000
000000
F001C0
7003C0
780380
380380
380700
1C0700
1C0F00
0E0E00
0E0E00
071C00
071C00
07B800
03B800
03B000
01F000
01F000
00E000
00E000
00E000
00E000
00E000
00E000
00E000
00E000
00E000
00E000
00E000
00E000
ENDCHAR
STARTCHAR 017D
ENCODING 381
SWIDTH 437 0
DWIDTH 17 0
BBX 15 34 1 0
BITMAP
3838
1C70
0EE0
06C0
0380
0000
FFFE
FFFE
FFFE
001C
003C
0038
0078
0070
00F0
00E0
01E0
01C0
03C0
0380
0780
0700
0700
0E00
0E00
1C00
1C00
3800
3800
7000
7000
FFFE
FFFE
FFFE
ENDCHAR
STARTCHAR 017E
ENCODING 382
SWIDTH 437 0
DWIDTH 17 0
BBX 15 28 1 0
BITMAP
3818
1C30
0E60
07C0
03C0
0000
0000
7FFE
7FFE
001E
001C
003C
0078
0070
00F0
01E0
01C0
0380
0780
0F00
0E00
1E00
3C00
3800
7800
F000
FFFE
FFFE
ENDCHAR
STARTCHAR 0192
ENCODING 402
SWIDTH 565 0
DWIDTH 22 0
BBX 20 36 0 -8
BITMAP
0003F0
000FF0
001FF0
001C00
003800
003800
003800
003000
007000
007000
007000
007000
0FFF80
1FFF80
007000
007000
007000
007000
007000
007000
007000
007000
007000
007000
00F000
00E000
00E000
00E000
00E000
00E000
01E000
01C000
03C000
7F8000
FF0000
FC0000
ENDCHAR
STARTCHAR 02C6
ENCODING 710
SWIDTH 231 0
DWIDTH 9 0
BBX 11 5 -1 23
BITMAP
0E00
1B00
3B80
71C0
E0E0
ENDCHAR
STARTCHAR 02C7
ENCODING 711
SWIDTH 231 0
DWIDTH 9 0
BBX 11 5 -1 23
BITMAP
E0E0
71C0
3B80
1B00
0E00
ENDCHAR
STARTCHAR 02C9
ENCODING 713
SWIDTH 231 0
DWIDTH 9 0
BBX 11 2 -1 25
BITMAP
FFE0
FFE0
ENDCHAR
STARTCHAR 02D8
ENCODING 728
SWIDTH 231 0
DWIDTH 9 0
BBX 11 5 -1 24
BITMAP
C060
C060
60C0
3F80
1E00
ENDCHAR
STARTCHAR 02D9
ENCODING 729
SWIDTH 231 0
DWIDTH 9 0
BBX 3 4 3 24
BITMAP
E0
E0
E0
E0
ENDCHAR
STARTCHAR 02DA
ENCODING 730
SWIDTH 231 0
DWIDTH 9 0
BBX 9 9 0 23
BITMAP
1C00
7F00
6300
C180
C180
C180
6300
7F00
1C00
ENDCHAR
STARTCHAR 02DB
ENCODING 731
SWIDTH 231 0
DWIDTH 9 0
BBX 9 9 0 -8
BITMAP
0180
0E00
3800
7000
E000
E000
E180
FF00
3C00
ENDCHAR
STARTCHAR 02DC
ENCODING 732
SWIDTH 231 0
DWIDTH 9 0
BBX 12 4 -2 24
BITMAP
3830
7E30
C7E0
C1C0
ENDCHAR
STARTCHAR 02DD
ENCODING 733
SWIDTH 231 0
DWIDTH 9 0
BBX 10 5 1 23
BITMAP
1CC0
3180
6300
C600
8C00
ENDCHAR
STARTCHAR 03BC
ENCODING 956
SWIDTH 488 0
DWIDTH 19 0
BBX 15 29 2 -8
BITMAP
E00E
E00E
E00E
E00E
E00E
E00E
E00E
E00E
E00E
E00E
E00E
E00E
E00E
E00E
E00E
E00E
F01E
F03E
FFFE
FFEE
FF8E
E000
E000
E000
E000
E000
E000
E000
E000
ENDCHAR
STARTCHAR 2013
ENCODING 8211
SWIDTH 488 0
DWIDTH 19 0
BBX 19 2 0 10
BITMAP
FFFFE0
FFFFE0
ENDCHAR
STARTCHAR 2014
ENCODING 8212
SWIDTH 1002 0
DWIDTH 39 0
BBX 38 2 0 10
BITMAP
FFFFFFFFFC
FFFFFFFFFC
ENDCHAR
STARTCHAR 2018
ENCODING 8216
SWIDTH 231 0
DWIDTH 9 0
BBX 6 8 1 19
BITMAP
E0
60
70
30
38
18
1C
0C
ENDCHAR
STARTCHAR 2019
ENCODING 8217
SWIDTH 231 0
DWIDTH 9 0
BBX 7 8 1 19
BITMAP
0E
0C
1C
18
38
70
70
E0
ENDCHAR
STARTCHAR 201A
ENCODING 8218
SWIDTH 231 0
DWIDTH 9 0
BBX 7 8 1 -4
BITMAP
0E
1C
18
38
30
70
60
E0
ENDCHAR
STARTCHAR 201C
ENCODING 8220
SWIDTH 334 0
DWIDTH 13 0
BBX 11 8 1 19
BITMAP
EE00
6700
7700
3380
3B80
19C0
1DC0
0CE0
ENDCHAR
STARTCHAR 201D
ENCODING 8221
SWIDTH 334 0
DWIDTH 13 0
BBX 11 8 1 19
BITMAP
0EE0
1CC0
1DC0
3980
3B80
7300
7700
E600
ENDCHAR
STARTCHAR 201E
ENCODING 8222
SWIDTH 334 0
DWIDTH 13 0
BBX 11 8 1 -4
BITMAP
0EE0
1CC0
19C0
3980
3380
7300
6700
EE00
ENDCHAR
STARTCHAR 2020
ENCODING 8224
SWIDTH 437 0
DWIDTH 17 0
BBX 12 31 2 -4
BITMAP
0600
0600
0600
0600
0600
0600
0600
E670
FFF0
C630
0600
0600
0600
0600
0600
0600
0600
0600
0600
0600
0600
0600
0600
0600
0600
0600
0600
0600
0600
0600
0600
ENDCHAR
STARTCHAR 2021
ENCODING 8225
SWIDTH 437 0
DWIDTH 17 0
BBX 13 31 2 -4
BITMAP
0700
0700
0700
0700
0200
0200
0200
E238
FFF8
C218
0200
0200
0700
0700
0700
0700
0700
0700
0700
0200
0200
8218
FFF8
F278
0200
0200
0200
0700
0700
0700
0700
ENDCHAR
STARTCHAR 2022
ENCODING 8226
SWIDTH 488 0
DWIDTH 19 0
BBX 14 14 3 7
BITMAP
0FC0
1FE0
3FF0
7FF8
FFFC
FFFC
FFFC
FFFC
FFFC
FFFC
7FF8
3FF0
1FE0
0FC0
ENDCHAR
STARTCHAR 2026
ENCODING 8230
SWIDTH 1002 0
DWIDTH 39 0
BBX 28 4 5 0
BITMAP
E0070070
E0070070
E0070070
E0070070
ENDCHAR
STARTCHAR 2030
ENCODING 8240
SWIDTH 1002 0
DWIDTH 39 0
BBX 36 28 1 0
BITMAP
1F00C00000
3F81C00000
71C1C00000
60C1800000
C063800000
C063000000
C067000000
C067000000
C066000000
C06E000000
60CC000000
71DC000000
3F98000000
0E18000000
0038000000
0031F80F80
0073FC1FC0
00670E38E0
0066063070
00EC036030
00CC036030
01CC036030
018C036030
018C036030
0306063070
03070E3860
0703FC1FC0
0601F80F80
ENDCHAR
STARTCHAR 2039
ENCODING 8249
SWIDTH 282 0
DWIDTH 11 0
BBX 7 14 2 4
BITMAP
0E
1C
18
38
70
70
E0
E0
70
70
38
18
1C
0E
ENDCHAR
STARTCHAR 203A
ENCODING 8250
SWIDTH 282 0
DWIDTH 11 0
BBX 7 14 2 4
BITMAP
E0
70
30
38
18
1C
0E
0E
1C
18
38
30
70
E0
ENDCHAR
STARTCHAR 2044
ENCODING 8260
SWIDTH 180 0
DWIDTH 7 0
BBX 19 28 -6 0
BITMAP
0000E0
0001C0
0003C0
000380
000700
000700
000E00
000E00
001C00
003C00
003800
007000
007000
00E000
00E000
01C000
03C000
038000
070000
070000
0E0000
0E0000
1C0000
3C0000
380000
700000
700000
E00000
ENDCHAR
STARTCHAR 20AC
ENCODING 8364
SWIDTH 565 0
DWIDTH 22 0
BBX 18 28 1 0
BITMAP
007E00
01FF80
03FFC0
0781C0
0F0040
0E0000
1C0000
1C0000
180000
380000
FFFF00
FFFF00
FFFE00
380000
380000
FFFC00
FFFC00
FFFC00
380000
180000
1C0000
1C0000
1E0000
0F0040
0F81C0
07FFC0
03FF80
00FE00
ENDCHAR
STARTCHAR 2122
ENCODING 8482
SWIDTH 1002 0
DWIDTH 39 0
BBX 33 15 1 12
BITMAP
FFF9F00F80
FFF9F00F80
0701F01F80
0701F81F80
0701D81B80
0701DC3B80
0701DC3380
0701CE3380
0701CE7380
0701C66380
0701C7E380
0701C7C380
0701C3C380
0701C3C380
0701C18380
ENDCHAR
STARTCHAR 2212
ENCODING 8722
SWIDTH 591 0
DWIDTH 23 0
BBX 19 3 2 8
BITMAP
FFFFE0
FFFFE0
FFFFE0
ENDCHAR
STARTCHAR 2215
ENCODING 8725
SWIDTH 180 0
DWIDTH 7 0
BBX 19 28 -6 0
BITMAP
0000E0
0001C0
0003C0
000380
000700
000700
000E00
000E00
001C00
003C00
003800
007000
007000
00E000
00E000
01C000
03C000
038000
070000
070000
0E0000
0E0000
1C0000
3C0000
380000
700000
700000
E00000
ENDCHAR
STARTCHAR 2219
ENCODING 8729
SWIDTH 282 0
DWIDTH 11 0
BBX 4 4 3 8
BITMAP
60
F0
F0
60
ENDCHAR
STARTCHAR FB01
ENCODING 64257
SWIDTH 437 0
DWIDTH 17 0
BBX 14 28 0 0
BITMAP
0780
0F9C
1E1C
1C1C
1C00
1C00
1C00
FF9C
FF9C
1C1C
1C1C
1C1C
1C1C
1C1C
1C1C
1C1C
1C1C
1C1C
1C1C
1C1C
1C1C
1C1C
1C1C
1C1C
1C1C
1C1C
1C1C
1C1C
ENDCHAR
STARTCHAR FB02
ENCODING 64258
SWIDTH 437 0
DWIDTH 17 0
BBX 14 28 0 0
BITMAP
079C
0F9C
1E1C
1C1C
1C1C
1C1C
1C1C
FF9C
FF9C
1C1C
1C1C
1C1C
1C1C
1C1C
1C1C
1C1C
1C1C
1C1C
1C1C
1C1C
1C1C
1C1C
1C1C
1C1C
1C1C
1C1C
1C1C
1C1C
ENDCHAR
ENDFONT
